<?xml version="1.0" encoding="UTF-8" standalone="no"?>
<!-- Created with Inkscape (http://www.inkscape.org/) -->

<svg
   version="1.1"
   id="svg48"
   width="291.97763"
   height="603.89673"
   viewBox="0 0 291.97763 603.89673"
   sodipodi:docname="mtj logo.svg"
   inkscape:version="1.2.2 (b0a8486541, 2022-12-01)"
   xmlns:inkscape="http://www.inkscape.org/namespaces/inkscape"
   xmlns:sodipodi="http://sodipodi.sourceforge.net/DTD/sodipodi-0.dtd"
   xmlns="http://www.w3.org/2000/svg"
   xmlns:svg="http://www.w3.org/2000/svg">
  <defs
     id="defs52" />
  <sodipodi:namedview
     id="namedview50"
     pagecolor="#ffffff"
     bordercolor="#000000"
     borderopacity="0.25"
     inkscape:showpageshadow="2"
     inkscape:pageopacity="0.0"
     inkscape:pagecheckerboard="0"
     inkscape:deskcolor="#d1d1d1"
     showgrid="false"
     inkscape:zoom="0.46492271"
     inkscape:cx="115.07289"
     inkscape:cy="438.78261"
     inkscape:window-width="1920"
     inkscape:window-height="1011"
     inkscape:window-x="0"
     inkscape:window-y="0"
     inkscape:window-maximized="1"
     inkscape:current-layer="g54" />
  <g
     inkscape:groupmode="layer"
     inkscape:label="Image"
     id="g54"
     transform="translate(-347.55533,-118.55167)">
    <path
       style="fill:#f3bf69;fill-opacity:1"
       d="m 414.39297,721.05567 c -29.4711,-5.9309 -52.661,-26.6054 -62.6031,-55.8126 -3.1336,-9.2056 -4.9271,-22.3477 -3.3148,-24.2903 0.9815,-1.1827 4.5559,-1.395 19.742,-1.1727 l 18.5435,0.2716 1.1818,7.0179 c 2.3377,13.8833 11.3147,25.681 24.1768,31.7735 6.4026,3.0328 7.4039,3.2086 18.2738,3.2086 10.7937,0 11.9029,-0.1909 18.0608,-3.1089 8.3415,-3.9528 16.7023,-12.0629 21.0746,-20.4426 l 3.3646,-6.4485 0.5,-87.1672 c 0.275,-47.942 0.8738,-87.542 1.3307,-88 0.4569,-0.458 8.609,-0.9736 18.1157,-1.1457 14.9369,-0.2704 17.507,-0.091 18.9193,1.3214 1.4857,1.4857 1.6336,9.0161 1.6267,82.8129 0,44.6482 -0.4335,84.8827 -0.9541,89.4101 -3.7053,32.2238 -26.0359,59.4047 -57.2324,69.6632 -11.2188,3.6892 -28.5132,4.5831 -40.8059,2.1093 z m -65.913,-101.8991 c -0.8678,-1.0457 -1.075,-34.0472 -0.8273,-131.75 0.3269,-128.9156 0.3541,-130.4574 2.4644,-139.6394 4.6729,-20.3313 12.2836,-38.4574 22.7639,-54.2155 6.194,-9.3132 25.3541,-28.7823 35.9975,-36.5781 26.903,-19.7051 64.1865,-29.8249 97.4653,-26.4549 35.2722,3.5718 63.5744,16.759 88.8831,41.4142 24.3492,23.7205 38.7684,52.9629 42.7036,86.6039 1.9629,16.7809 2.2066,258.8708 0.2625,260.8149 -0.8433,0.8433 -6.4811,1.2 -18.9648,1.2 -16.0091,0 -17.859,-0.1759 -18.7174,-1.7799 -0.5239,-0.979 -1.1466,-17.0665 -1.3837,-35.75 -0.45,-35.4661 -0.4907,-35.845 -5.585,-51.9701 -8.3435,-26.4098 -33.3209,-52.2469 -61.2239,-63.3311 -16.3114,-6.4796 -38.5682,-8.9154 -55.8467,-6.1119 -39.704,6.4421 -73.7164,36.3379 -84.9742,74.6895 -3.3304,11.3458 -4.1043,21.1746 -4.1043,52.1258 0,21.7882 -0.3205,30.0482 -1.2,30.9277 -1.8527,1.8527 -36.1607,1.6752 -37.713,-0.1951 z m 45.965,-159.6559 c 14.546,-13.4861 37.803,-26.9223 55.948,-32.3227 18.5989,-5.5354 37.9503,-7.4651 56.4848,-5.6324 31.4733,3.112 59.1232,15.0455 83.2045,35.9105 4.5042,3.9026 8.4638,7.0956 8.7992,7.0956 0.3353,0 0.4615,-23.7375 0.2804,-52.75 l -0.3293,-52.75 -2.7159,-10 c -3.3075,-12.1778 -10.1109,-26.5799 -16.8515,-35.6723 -8.2658,-11.15 -22.2276,-23.5997 -33.4749,-29.8495 -9.1807,-5.1014 -26.6499,-11.9188 -30.6473,-11.9601 -1.6491,-0.017 -1.75,3.7638 -1.75,65.5476 0,43.2838 -0.3518,66.2231 -1.0352,67.5 -0.9624,1.7983 -2.2451,1.9332 -18.25,1.919 -9.4681,-0.01 -17.8898,-0.4419 -18.7148,-0.9633 -1.3004,-0.8217 -1.5666,-9.7707 -2,-67.2347 l -0.5,-66.2867 -3,0.2909 c -7.6249,0.7392 -26.7684,8.8451 -36,15.2432 -18.47,12.801 -33.9131,33.167 -41.0763,54.1703 -5.0181,14.7137 -5.4237,20.2047 -5.4237,73.4266 0,27.1529 0.3609,49.369 0.802,49.369 0.4411,0 3.2536,-2.273 6.25,-5.051 z m 42.4419,-244.199 c -0.2441,-0.6875 -1.8486,-5.3 -3.5656,-10.25 -4.4865,-12.9344 -8.6162,-20.1886 -15.2684,-26.8202 -5.5279,-5.5109 -5.7515,-5.9207 -4.1787,-7.6587 5.8132,-6.4234 25.4942,-9.0893 37.4029,-5.0663 3.5111,1.1861 6.9206,1.9505 7.5768,1.6987 0.6562,-0.2518 2.0048,-2.6393 2.9969,-5.3057 3.1828,-8.5534 12.4248,-25.645 17.5943,-32.5376 5.3528,-7.1369 10.1568,-10.8102 14.1382,-10.8102 3.4431,0 9.0107,4.4617 14.3504,11.5 4.8768,6.4281 15.853,27.5683 17.5235,33.75 1.1868,4.3923 2.2425,4.5828 9.6969,1.7495 7.7001,-2.9267 20.0645,-2.7559 28.7508,0.397 9.9771,3.6215 12.9938,7.1409 8.0513,9.3929 -5.8646,2.6721 -15.2005,18.3688 -19.5571,32.8818 -1.1839,3.9442 -2.819,7.4269 -3.6333,7.7394 -0.8144,0.3125 -3.5939,-0.4895 -6.1766,-1.7822 -13.3991,-6.7067 -25.7616,-9.0377 -48.1958,-9.0874 -24.602,-0.054 -36.7903,2.2097 -51.0479,9.4834 -4.5053,2.2984 -5.8468,2.4491 -6.4586,0.7256 z"
       id="path271"
       sodipodi:nodetypes="sssscssssscsssscsssssssssssssssssssssssssssscssssssssscssssssssssssssssssssssssss"
       inkscape:export-filename="mtj-landing-pages/public/logo_mtj.svg"
       inkscape:export-xdpi="49.318848"
       inkscape:export-ydpi="49.318848" />
  </g>
</svg>
